<?xml version="1.0" encoding="UTF-8"?>
<!-- Created with Inkscape (http://www.inkscape.org/) -->
<svg width="480" height="464" version="1.1" viewBox="0 0 127 122.77" xmlns="http://www.w3.org/2000/svg" xmlns:cc="http://creativecommons.org/ns#" xmlns:dc="http://purl.org/dc/elements/1.1/" xmlns:rdf="http://www.w3.org/1999/02/22-rdf-syntax-ns#" xmlns:xlink="http://www.w3.org/1999/xlink">
 <defs>
  <linearGradient id="linearGradient1834">
   <stop stop-color="#c8c8c8" offset="0"/>
   <stop stop-color="#c8c8c8" stop-opacity="0" offset="1"/>
  </linearGradient>
  <radialGradient id="radialGradient1836" cx="256" cy="256" r="256" gradientUnits="userSpaceOnUse" xlink:href="#linearGradient1834"/>
 </defs>
 <metadata>
  <rdf:RDF>
   <cc:Work rdf:about="">
    <dc:format>image/svg+xml</dc:format>
    <dc:type rdf:resource="http://purl.org/dc/dcmitype/StillImage"/>
    <dc:title/>
   </cc:Work>
  </rdf:RDF>
 </metadata>
 <g transform="translate(-4.2333 -8.4667)" display="none">
  <rect y="4.2667e-6" width="135.47" height="135.47" fill="#fff" fill-rule="evenodd"/>
 </g>
 <g transform="translate(-4.2333 -8.4667)" display="none">
  <path transform="scale(.26458)" d="m116 0v116l-51.998 2e-3v24l51.998-4e-3v104h-116v23.998h116v104h-116v23.998h116v116h24v-116h104l-0.00195 52h24l1e-5 -52h104v116h23.998v-116h116v-23.998h-116v-104h116v-23.998h-116v-104l51.998 4e-3v-24l-51.998-2e-3v-116h-23.998v116h-104v-116h-23.998v116h-104v-116zm24 140h104v104h-104zm128 0h104v104h-104zm-128 128h104v104h-104zm128 0h104v104h-104z" color="#000000" color-rendering="auto" display="inline" dominant-baseline="auto" fill="url(#radialGradient1836)" image-rendering="auto" shape-rendering="auto" solid-color="#000000" style="font-feature-settings:normal;font-variant-alternates:normal;font-variant-caps:normal;font-variant-ligatures:normal;font-variant-numeric:normal;font-variant-position:normal;isolation:auto;mix-blend-mode:normal;shape-padding:0;text-decoration-color:#000000;text-decoration-line:none;text-decoration-style:solid;text-indent:0;text-orientation:mixed;text-transform:none;white-space:normal"/>
 </g>
 <g transform="translate(-4.2333 -8.4667)" display="none">
  <path transform="scale(.26458)" d="m51.998 0v51.998h-51.998v23.998h51.998v104h-51.998v23.998h51.998v104h-51.998v23.998h51.998v104h-51.998v24.006h51.998v51.998h23.998v-51.998h104v51.998h23.998v-51.998h104v51.998h23.998v-51.998h104v51.998h24.006v-51.998h51.998v-24.006h-51.998v-104h51.998v-23.998h-51.998v-104h51.998v-23.998h-51.998v-104h51.998v-23.998h-51.998v-51.998h-24.006v51.998h-104v-51.998h-23.998v51.998h-104v-51.998h-23.998v51.998h-104v-51.998zm23.998 75.996h104v104h-104zm128 0h104v104h-104zm128 0h104v104h-104zm-256 128h104v104h-104zm128 0h104v104h-104zm128 0h104v104h-104zm-256 128h104v104h-104zm128 0h104v104h-104zm128 0h104v104h-104z" color="#000000" color-rendering="auto" display="inline" dominant-baseline="auto" fill="url(#radialGradient1836)" image-rendering="auto" shape-rendering="auto" solid-color="#000000" style="font-feature-settings:normal;font-variant-alternates:normal;font-variant-caps:normal;font-variant-ligatures:normal;font-variant-numeric:normal;font-variant-position:normal;isolation:auto;mix-blend-mode:normal;shape-padding:0;text-decoration-color:#000000;text-decoration-line:none;text-decoration-style:solid;text-indent:0;text-orientation:mixed;text-transform:none;white-space:normal"/>
 </g>
 <g transform="translate(-4.2333 -170)">
  <path transform="matrix(.26458 0 0 .26458 0 161.53)" d="m140 32-124 96 124 96v-56h76v204l-56 1e-5 96 124 96-124-56-1e-5v-204h76l1e-5 56 124-96-124-96-1e-5 56c-77.353 7e-6 -162.92 4e-6 -232 0z"/>
 </g>
 <g transform="translate(-4.2333 -170)" display="none">
  <path transform="matrix(.26458 0 0 .26458 0 161.53)" d="m120 80-72 48 72 48v-32h108.33a32 32 0 0 0 11.668 11.678v236.32h-32l48 72 48-72h-32v-236.33a32 32 0 0 0 11.678-11.668h108.32v32l72-48-72-48v32h-108.33a32 32 0 0 0-27.668-16 32 32 0 0 0-27.678 16h-108.32z" fill="#646464"/>
 </g>
</svg>
